<svg xmlns="http://www.w3.org/2000/svg" viewBox="0 0 64 80" width="64" height="80" fill="none">
  <defs>
    <linearGradient id="shield-navy" x1="0" y1="0" x2="0" y2="1">
      <stop offset="0" stop-color="#0a2540"></stop>
      <stop offset="1" stop-color="#000f22"></stop>
    </linearGradient>
    <clipPath id="skep-clip">
      
      <path d="M32 22&#xA;               C 44 22, 49 32, 49 52&#xA;               L 49 54&#xA;               L 15 54&#xA;               L 15 52&#xA;               C 15 32, 20 22, 32 22 Z"></path>
    </clipPath>
  </defs>

  
  <path d="M32 2 L60 10 L60 38 C60 56 48 70 32 78 C16 70 4 56 4 38 L4 10 Z" fill="url(#shield-navy)"></path>

  
  <path d="M32 7 L55.5 13.7 L55.5 38 C55.5 53.5 45 66 32 73 C19 66 8.5 53.5 8.5 38 L8.5 13.7 Z" fill="none" stroke="#d4af37" stroke-width="0.8" stroke-opacity="0.55"></path>

  
  <g clip-path="url(#skep-clip)">
    
    <rect x="12" y="22" width="40" height="34" fill="#d4af37" fill-opacity="0.08"></rect>
    
    <g stroke="#d4af37" stroke-width="0.9" fill="none" stroke-linecap="round">
      <path d="M10 27 C 20 25.5, 44 25.5, 54 27"></path>
      <path d="M10 32 C 18 30.5, 46 30.5, 54 32"></path>
      <path d="M10 37 C 16 35.5, 48 35.5, 54 37"></path>
      <path d="M10 42 H 54"></path>
      <path d="M10 47 H 54"></path>
      <path d="M10 52 H 54"></path>
    </g>
  </g>

  
  <path d="M32 22&#xA;           C 44 22, 49 32, 49 52&#xA;           L 49 54&#xA;           L 15 54&#xA;           L 15 52&#xA;           C 15 32, 20 22, 32 22 Z" fill="none" stroke="#d4af37" stroke-width="1.3" stroke-linejoin="round"></path>

  
  <path d="M28.5 54 C 28.5 50, 35.5 50, 35.5 54 Z" fill="#000f22" stroke="#d4af37" stroke-width="0.9"></path>

  
  <g stroke="#d4af37" stroke-width="0.9" fill="none" stroke-linecap="round">
    <path d="M24 18 q 3 -3 6 0"></path>           
    <circle cx="31" cy="18" r="0.9" fill="#d4af37" stroke="none"></circle>
  </g>

  
  <rect x="14" y="54" width="36" height="1.2" fill="#d4af37" fill-opacity="0.85"></rect>

  
  <g fill="#d4af37" fill-opacity="0.6">
    <rect x="12" y="60" width="2" height="1"></rect>
    <rect x="18" y="63" width="2" height="1"></rect>
    <rect x="44" y="63" width="2" height="1"></rect>
    <rect x="50" y="60" width="2" height="1"></rect>
  </g>
</svg>